<?xml version="1.0" standalone="no"?>
<!DOCTYPE svg PUBLIC "-//W3C//DTD SVG 20010904//EN"
 "http://www.w3.org/TR/2001/REC-SVG-20010904/DTD/svg10.dtd">
<svg version="1.0" xmlns="http://www.w3.org/2000/svg"
 width="1141.000000pt" height="1280.000000pt" viewBox="0 0 1141.000000 1280.000000"
 preserveAspectRatio="xMidYMid meet">
<metadata>
Created by potrace 1.15, written by Peter Selinger 2001-2017
</metadata>
<g transform="translate(0.000000,1280.000000) scale(0.100000,-0.100000)"
fill="#000000" stroke="none">
<path d="M415 12794 c-140 -28 -170 -43 -207 -102 -26 -43 -19 -94 19 -134 35
-37 55 -48 184 -96 183 -69 386 -182 699 -392 244 -163 555 -403 495 -383 -15
5 -10 -5 20 -42 22 -27 34 -50 28 -52 -6 -2 41 -54 105 -115 394 -373 640
-681 906 -1136 188 -321 471 -920 464 -981 -3 -23 -10 -16 -63 58 -33 45 -61
79 -62 74 -2 -5 7 -61 21 -124 16 -78 22 -131 18 -168 l-5 -55 -43 85 c-24 46
-43 81 -43 78 -1 -3 13 -45 29 -94 17 -49 30 -93 30 -97 0 -5 -27 10 -61 33
-33 22 -62 39 -64 37 -2 -2 23 -38 56 -80 80 -103 86 -140 35 -231 -33 -59
-40 -66 -82 -76 -25 -6 -42 -15 -39 -20 8 -14 -93 -34 -137 -27 -36 6 -40 5
-28 -9 11 -13 6 -15 -40 -15 -39 0 -51 -3 -47 -13 4 -10 -8 -13 -46 -13 -29 0
-70 -3 -93 -8 -39 -8 -41 -7 -53 20 -6 16 -27 40 -46 53 -38 25 -70 75 -104
162 -12 31 -31 60 -41 65 -29 14 -407 387 -480 475 -121 144 -305 265 -538
354 -110 42 -126 45 -212 45 -86 0 -99 -3 -164 -35 -222 -107 -378 -307 -464
-590 -45 -149 -76 -405 -76 -640 0 -177 2 -195 26 -270 14 -44 31 -107 38
-140 20 -98 97 -236 212 -380 166 -208 288 -306 540 -438 90 -47 189 -100 221
-119 l59 -33 67 -166 c105 -257 167 -366 278 -486 l94 -102 -6 -44 c-7 -43 -7
-44 -146 -131 -76 -49 -139 -90 -139 -92 0 -4 186 62 201 71 5 4 9 4 9 1 0 -2
-65 -55 -145 -117 -79 -62 -143 -115 -141 -116 2 -2 72 27 155 66 83 38 151
67 151 65 0 -11 -108 -165 -172 -245 -37 -48 -68 -89 -68 -92 0 -3 28 -3 62 0
51 5 60 4 53 -8 -5 -8 -66 -88 -136 -179 -96 -126 -170 -207 -309 -343 -100
-97 -179 -177 -177 -177 3 0 49 20 101 44 53 25 96 43 96 40 0 -3 -39 -65 -87
-139 -64 -96 -141 -193 -281 -349 -106 -119 -189 -216 -185 -216 4 0 28 7 53
16 109 39 109 39 51 -20 -47 -48 -72 -62 -222 -127 -93 -40 -167 -74 -165 -76
3 -3 94 8 256 32 45 7 -205 -107 -320 -145 l-85 -29 149 -3 149 -3 -77 -59
c-42 -32 -76 -60 -76 -61 0 -4 83 30 183 73 26 12 47 20 47 17 0 -2 -29 -32
-65 -66 -70 -67 -53 -60 -310 -138 -55 -16 -126 -37 -158 -46 -32 -9 -56 -19
-54 -21 9 -9 220 -44 262 -44 24 0 103 21 186 50 l144 50 -41 -38 c-23 -20
-75 -67 -115 -103 -41 -37 -127 -105 -193 -153 -65 -47 -112 -86 -105 -86 13
0 202 35 344 63 63 13 229 16 240 6 3 -4 -28 -67 -69 -142 -48 -85 -92 -181
-120 -263 -25 -70 -44 -129 -43 -130 1 -2 121 62 266 142 144 79 266 144 271
144 4 0 11 -187 15 -415 4 -228 9 -415 11 -415 2 0 37 20 77 45 41 25 77 45
81 45 3 0 6 -110 6 -245 0 -135 3 -245 6 -245 3 0 25 16 50 36 40 33 44 34 50
18 4 -11 25 -64 47 -119 22 -55 63 -164 92 -243 l52 -143 64 -43 c35 -23 108
-68 161 -100 l97 -56 78 20 c43 12 102 28 132 37 63 18 63 17 82 -69 7 -32 16
-58 19 -57 3 0 59 61 125 134 66 74 121 132 122 131 2 -2 -1 -68 -6 -147 -30
-445 -33 -531 -16 -624 9 -49 24 -137 35 -195 10 -58 24 -136 30 -175 7 -38
15 -73 19 -78 4 -4 32 92 61 213 30 121 57 220 60 220 4 0 12 -84 19 -188 7
-103 15 -189 16 -191 8 -8 14 50 20 184 13 331 23 402 39 308 9 -48 126 -583
132 -602 2 -8 45 67 95 165 50 98 96 185 104 192 10 11 18 9 46 -16 27 -23 53
-33 120 -46 113 -21 122 -20 74 9 -46 29 -43 29 43 11 l64 -14 -6 24 c-6 24
-6 24 71 23 43 0 86 -3 95 -7 9 -4 42 -40 72 -81 33 -44 77 -88 108 -109 29
-19 55 -37 57 -38 2 -2 -13 -29 -34 -59 -21 -31 -36 -57 -34 -59 2 -1 42 -31
89 -66 47 -35 156 -122 243 -193 87 -71 160 -127 161 -125 2 1 30 73 64 158
35 89 70 200 83 260 12 57 49 174 81 260 33 85 77 220 98 300 20 80 71 233
113 340 41 107 98 276 125 375 45 164 55 188 108 272 33 51 64 94 69 96 7 3 9
-72 7 -228 -5 -268 1 -307 87 -592 60 -199 88 -248 169 -291 49 -26 76 -33
173 -42 100 -9 121 -9 176 7 58 17 68 24 152 117 76 84 92 107 101 150 7 28
13 156 15 284 2 129 6 236 9 239 16 16 155 32 274 33 l133 0 129 76 c111 65
137 85 187 146 l57 71 97 -7 c95 -7 98 -6 146 22 26 16 106 56 177 88 l129 59
77 95 c42 52 126 147 187 210 l110 116 22 84 c37 138 62 200 116 285 32 50 57
103 66 140 14 59 14 61 -13 123 -27 62 -27 64 -22 220 7 203 7 247 -1 363 -6
79 -4 107 10 149 21 65 16 155 -22 345 l-26 130 -125 200 c-69 110 -125 207
-125 216 1 15 57 201 150 499 44 141 46 150 54 329 8 178 10 186 49 298 26 75
40 132 40 164 0 28 7 101 16 162 18 122 34 156 110 237 45 49 79 127 90 210
l7 52 49 -49 c27 -26 70 -76 96 -110 25 -35 47 -61 49 -59 2 2 -12 40 -31 85
-19 44 -33 81 -31 81 2 0 27 -34 56 -75 29 -41 54 -73 56 -72 1 2 -13 33 -33
70 -19 37 -31 67 -26 67 6 0 12 -3 14 -7 2 -5 18 -21 36 -38 l33 -30 -10 28
c-6 15 -18 41 -27 58 -8 17 -14 32 -12 34 2 1 111 19 243 39 197 30 272 47
420 92 99 30 223 68 275 84 312 95 405 125 495 160 586 227 538 205 853 392
l293 174 308 378 308 378 42 138 42 137 -36 114 c-21 63 -40 117 -44 121 -4 4
-69 19 -144 33 l-137 25 -258 -74 c-141 -41 -351 -102 -467 -136 -266 -77
-518 -138 -635 -155 -25 -3 -135 -19 -245 -36 -542 -79 -537 -79 -895 -109
-129 -11 -289 -24 -355 -30 -66 -6 -174 -15 -240 -20 -144 -12 -224 -19 -289
-26 l-48 -5 3 215 c2 118 3 213 2 212 -2 -1 -17 -96 -34 -211 -17 -115 -33
-213 -35 -217 -3 -4 -16 -8 -29 -8 -21 0 -27 8 -39 53 -50 176 -181 680 -267
1027 l-101 405 -6 260 c-4 143 -4 310 0 370 3 61 12 196 18 300 6 105 24 321
40 480 15 160 31 338 34 397 l7 108 90 203 c82 187 92 205 124 220 26 13 43
33 70 86 44 89 44 116 0 173 -32 43 -39 47 -100 57 -36 7 -94 11 -128 10 -34
-1 -73 1 -85 5 -14 5 -42 0 -75 -13 -29 -11 -85 -30 -125 -42 -60 -18 -94 -38
-178 -102 -91 -69 -121 -100 -237 -248 -132 -168 -135 -172 -219 -362 -85
-191 -86 -193 -186 -602 l-101 -410 -21 -310 c-11 -170 -20 -315 -20 -321 0
-6 -37 -58 -82 -115 -46 -57 -141 -195 -211 -307 -143 -226 -130 -215 -236
-187 -68 18 -105 52 -224 210 -112 149 -115 153 -83 85 l27 -55 -87 90 c-57
60 -84 83 -81 68 3 -13 3 -23 0 -23 -3 0 -39 31 -81 69 -43 38 -200 166 -350
284 -289 228 -288 227 -447 451 -27 38 -110 131 -185 206 -74 75 -209 215
-300 310 -91 95 -212 211 -270 258 -58 47 -152 127 -210 177 -262 227 -426
335 -808 534 -296 154 -405 202 -628 276 -91 31 -192 69 -225 85 -100 51 -225
88 -334 100 -44 4 -141 17 -215 29 -202 31 -503 49 -575 35z"/>
</g>
</svg>
